<svg width="115" height="110" viewBox="0 0 115 110" fill="none" xmlns="http://www.w3.org/2000/svg">
<path opacity="0.2" d="M0 109.333L26.6667 34.6667L74.6667 82.6667L0 109.333ZM17.6 91.7333L55.2 78.4L30.9333 54.1333L17.6 91.7333ZM66.9333 58.9333L61.3333 53.3333L91.2 23.4667C94.0444 20.6222 97.4667 19.2 101.467 19.2C105.467 19.2 108.889 20.6222 111.733 23.4667L114.933 26.6667L109.333 32.2667L106.133 29.0667C104.889 27.8222 103.333 27.2 101.467 27.2C99.6 27.2 98.0444 27.8222 96.8 29.0667L66.9333 58.9333ZM45.6 37.6L40 32L43.2 28.8C44.4444 27.5556 45.0667 26.0444 45.0667 24.2667C45.0667 22.4889 44.4444 20.9778 43.2 19.7333L39.7333 16.2667L45.3333 10.6667L48.8 14.1333C51.6444 16.9778 53.0667 20.3556 53.0667 24.2667C53.0667 28.1778 51.6444 31.5556 48.8 34.4L45.6 37.6ZM56.2667 48.2667L50.6667 42.6667L69.8667 23.4667C71.1111 22.2222 71.7333 20.6667 71.7333 18.8C71.7333 16.9333 71.1111 15.3778 69.8667 14.1333L61.3333 5.6L66.9333 0L75.4667 8.53333C78.3111 11.3778 79.7333 14.8 79.7333 18.8C79.7333 22.8 78.3111 26.2222 75.4667 29.0667L56.2667 48.2667ZM77.6 69.6L72 64L80.5333 55.4667C83.3778 52.6222 86.8 51.2 90.8 51.2C94.8 51.2 98.2222 52.6222 101.067 55.4667L109.6 64L104 69.6L95.4667 61.0667C94.2222 59.8222 92.6667 59.2 90.8 59.2C88.9333 59.2 87.3778 59.8222 86.1333 61.0667L77.6 69.6Z" fill="#211B0D"/>
</svg>
