<svg width="168" height="156" viewBox="0 0 168 156" fill="none" xmlns="http://www.w3.org/2000/svg">
<path opacity="0.1" d="M88 156C81.6 150.933 74.6667 147 67.2 144.2C59.7333 141.4 52 140 44 140C38.4 140 32.9 140.733 27.5 142.2C22.1 143.667 16.9333 145.733 12 148.4C9.2 149.867 6.5 149.8 3.9 148.2C1.3 146.6 0 144.267 0 141.2V44.8C0 43.3333 0.366667 41.9333 1.1 40.6C1.83333 39.2667 2.93333 38.2667 4.4 37.6C10.5333 34.4 16.9333 32 23.6 30.4C30.2667 28.8 37.0667 28 44 28C51.7333 28 59.3 29 66.7 31C74.1 33 81.2 36 88 40V136.8C94.8 132.533 101.933 129.333 109.4 127.2C116.867 125.067 124.4 124 132 124C136.8 124 141.5 124.4 146.1 125.2C150.7 126 155.333 127.2 160 128.8V32.8C162 33.4667 163.967 34.1667 165.9 34.9C167.833 35.6333 169.733 36.5333 171.6 37.6C173.067 38.2667 174.167 39.2667 174.9 40.6C175.633 41.9333 176 43.3333 176 44.8V141.2C176 144.267 174.7 146.6 172.1 148.2C169.5 149.8 166.8 149.867 164 148.4C159.067 145.733 153.9 143.667 148.5 142.2C143.1 140.733 137.6 140 132 140C124 140 116.267 141.4 108.8 144.2C101.333 147 94.4 150.933 88 156ZM104 116V40L144 0V80L104 116ZM72 129V49.8C67.6 47.9333 63.0333 46.5 58.3 45.5C53.5667 44.5 48.8 44 44 44C39.0667 44 34.2667 44.4667 29.6 45.4C24.9333 46.3333 20.4 47.7333 16 49.6V129C20.6667 127.267 25.3 126 29.9 125.2C34.5 124.4 39.2 124 44 124C48.8 124 53.5 124.4 58.1 125.2C62.7 126 67.3333 127.267 72 129ZM72 129V49.8V129Z" fill="#211B0D"/>
</svg>
